<svg width="64" height="50" viewBox="0 0 64 50" fill="none" xmlns="http://www.w3.org/2000/svg">
<path d="M6.7933 50L5.18435 47.4638C16.2682 40.0966 21.8101 32.7295 21.8101 25.3623C21.8101 21.6183 20.2011 19.4444 16.9832 18.8406L9.47486 25.9058C7.09125 25.0604 4.94599 23.4903 3.03911 21.1956C1.01303 19.0217 2.95633e-06 16.1836 3.26252e-06 12.6812C3.56871e-06 9.17874 1.37057 6.15941 4.11173 3.62318C6.85289 1.20772 10.4879 -4.67818e-06 15.0168 -4.28225e-06C19.4264 -3.89674e-06 23.121 1.50966 26.1006 4.52898C28.9609 7.66908 30.3911 11.9565 30.3911 17.3913C30.3911 29.2271 22.5251 40.0966 6.7933 50ZM40.4022 50L38.7933 47.4638C49.8771 40.0966 55.419 32.7295 55.419 25.3623C55.419 21.6184 53.8101 19.4444 50.5922 18.8406L43.0838 25.9058C40.7002 25.0604 38.5549 23.4903 36.648 21.1956C34.622 19.0217 33.6089 16.1836 33.6089 12.6812C33.6089 9.17874 34.9795 6.15942 37.7207 3.62319C40.4618 1.20773 44.0968 -1.73999e-06 48.6257 -1.34406e-06C53.0354 -9.58557e-07 56.73 1.50967 59.7095 4.52898C62.5698 7.66909 64 11.9565 64 17.3913C64 29.2271 56.1341 40.0966 40.4022 50Z" fill="white"/>
</svg>
